HIERARCHY
ROOT Hips
{
	OFFSET -3.958830 18.904000 13.208200
	CHANNELS 6 Xposition Yposition Zposition Zrotation Yrotation Xrotation 
	JOINT LHipJoint
	{
		OFFSET 0.000000 0.000000 0.000000
		CHANNELS 3 Zrotation Yrotation Xrotation
		JOINT LeftUpLeg
		{
			OFFSET 1.800000 -1.400000 0.085000
			CHANNELS 3 Zrotation Yrotation Xrotation
			JOINT LeftLeg
			{
				OFFSET 2.215000 -6.000000 0.000000
				CHANNELS 3 Zrotation Yrotation Xrotation
				JOINT LeftFoot
				{
					OFFSET 2.500000 -6.900000 0.000000
					CHANNELS 3 Zrotation Yrotation Xrotation
					JOINT LeftToeBase
					{
						OFFSET 0.200000 -0.500000 1.950000
						CHANNELS 3 Zrotation Yrotation Xrotation
						End Site
						{
							OFFSET 0.000000 0.000000 0.000000
						}
					}
				}
			}
		}
	}
	JOINT RHipJoint
	{
		OFFSET 0.000000 0.000000 0.000000
		CHANNELS 3 Zrotation Yrotation Xrotation
		JOINT RightUpLeg
		{
			OFFSET -1.800000 -1.400000 0.085000
			CHANNELS 3 Zrotation Yrotation Xrotation
			JOINT RightLeg
			{
				OFFSET -2.215000 -6.000000 0.000000
				CHANNELS 3 Zrotation Yrotation Xrotation
				JOINT RightFoot
				{
					OFFSET -2.500000 -6.900000 0.000000
					CHANNELS 3 Zrotation Yrotation Xrotation
					JOINT RightToeBase
					{
						OFFSET -0.200000 -0.500000 1.950000
						CHANNELS 3 Zrotation Yrotation Xrotation
						End Site
						{
							OFFSET 0.000000 0.000000 0.000000
						}
					}
				}
			}
		}
	}
	JOINT LowerBack
	{
		OFFSET 0.000000 0.000000 0.000000
		CHANNELS 3 Zrotation Yrotation Xrotation
		JOINT Spine
		{
			OFFSET -0.087000 1.940000 -0.288900
			CHANNELS 3 Zrotation Yrotation Xrotation
			JOINT Spine1
			{
				OFFSET 0.000000 1.950000 0.060000
				CHANNELS 3 Zrotation Yrotation Xrotation
				JOINT Neck
				{
					OFFSET 0.000000 0.000000 0.000000
					CHANNELS 3 Zrotation Yrotation Xrotation
					JOINT Neck1
					{
						OFFSET 0.000000 1.600000 0.340000
						CHANNELS 3 Zrotation Yrotation Xrotation
						JOINT Head
						{
							OFFSET 0.000000 1.667000 -0.240000
							CHANNELS 3 Zrotation Yrotation Xrotation
							End Site
							{
								OFFSET 0.000000 0.000000 0.000000
							}
						}
					}
				}
				JOINT LeftShoulder
				{
					OFFSET 0.000000 0.000000 0.000000
					CHANNELS 3 Zrotation Yrotation Xrotation
					JOINT LeftArm
					{
						OFFSET 2.700000 1.550000 -0.730000
						CHANNELS 3 Zrotation Yrotation Xrotation
						JOINT LeftForeArm
						{
							OFFSET 5.450000 0.000000 0.000000
							CHANNELS 3 Zrotation Yrotation Xrotation
							JOINT LeftHand
							{
								OFFSET 3.450000 0.000000 0.000000
								CHANNELS 3 Zrotation Yrotation Xrotation
								JOINT LeftHandIndex1
								{
									OFFSET 0.750000 0.000000 0.000000
									CHANNELS 3 Zrotation Yrotation Xrotation
									End Site
									{
										OFFSET 0.000000 0.000000 0.000000
									}
								}
							}
						}
					}
				}
				JOINT RightShoulder
				{
					OFFSET 0.000000 0.000000 0.000000
					CHANNELS 3 Zrotation Yrotation Xrotation
					JOINT RightArm
					{
						OFFSET -2.700000 1.550000 -0.730000
						CHANNELS 3 Zrotation Yrotation Xrotation
						JOINT RightForeArm
						{
							OFFSET -5.450000 0.000000 0.000000
							CHANNELS 3 Zrotation Yrotation Xrotation
							JOINT RightHand
							{
								OFFSET -3.450000 0.000000 0.000000
								CHANNELS 3 Zrotation Yrotation Xrotation
								JOINT RightHandIndex1
								{
									OFFSET -0.750000 0.000000 0.000000
									CHANNELS 3 Zrotation Yrotation Xrotation
									End Site
									{
										OFFSET 0.000000 0.000000 0.000000
									}
								}
							}
						}
					}
				}
			}
		}
	}
}
MOTION
Frames: 4
Frame Time: 0.016667
5.248000 16.315830 -7.742300 178.071372 73.686788 163.532087 -15.329413 13.644493 3.450961 0.205317 -2.221628 -3.929683 -8.301393 11.191382 35.636460 0.250744 7.490380 1.874621 0.295550 0.214190 0.388180 17.817245 -11.338800 3.145597 -6.569626 5.263720 -20.157828 2.785202 -10.436231 53.281381 -1.141402 -8.027895 1.316142 0.197640 -0.035620 0.127700 -4.132323 -0.876550 -7.865189 12.195690 -1.729416 22.197555 -0.868824 -0.401402 18.740811 -0.929170 5.656232 -21.337020 8.895519 -7.738009 34.821233 -4.695670 -2.375550 -15.778880 -4.565980 -36.044393 8.280812 20.568589 -7.907239 -8.643933 21.959484 5.622482 -1.742990 -4.659316 2.394785 0.452460 -0.059670 0.185190 -0.059280 5.134497 33.360792 14.940848 27.418162 21.461111 -3.076862 -24.589606 6.122320 -3.610442 2.554079 -1.576370 -0.160640 0.223990 0.048390 -0.176180 
5.362070 16.312880 -7.849130 178.209836 74.312729 162.508376 -15.311282 13.676059 3.591649 1.712277 -3.310171 -3.730697 -11.318965 13.103179 38.143455 0.506447 8.357388 1.561866 0.236290 0.151040 0.375350 17.887562 -10.827514 3.343177 -2.327302 5.921081 -22.607978 3.060530 -9.623199 50.312585 -1.035569 -7.261345 1.579156 0.114090 -0.088400 0.120540 -3.684387 -1.719610 -8.171312 10.923235 -2.562509 25.388215 -0.730538 -0.744145 17.017193 -0.583136 5.440546 -22.472705 7.847304 -6.757331 38.868493 -4.771800 -1.252530 -16.080170 -6.348580 -36.908274 8.867146 17.267365 -7.931545 -8.283362 20.304322 8.454429 -1.399267 -4.705032 2.269812 0.504250 -0.109980 0.234530 -0.103120 6.030420 34.118821 15.078893 29.297383 18.731081 -0.403012 -18.863248 2.488599 -1.297287 2.653201 -1.358736 -0.141830 0.202740 0.075020 -0.187210 
5.533430 16.312290 -7.960920 175.863472 74.505766 159.936527 -15.313519 13.675027 3.665320 1.931140 -3.762271 -2.118013 -12.735977 13.956646 39.040292 0.654172 8.750651 1.414165 0.278160 0.194480 0.419330 17.941709 -10.531187 3.444315 1.479368 6.050043 -24.710596 1.041670 -7.451468 46.007462 -0.869645 -6.115000 1.935140 0.106480 -0.165650 0.136600 -3.369695 -2.209043 -8.322106 8.604341 -3.001814 25.947122 -0.195666 -1.505235 15.273430 -0.170731 5.345127 -21.986127 7.269042 -5.766860 41.598019 -4.606260 -0.102780 -17.143430 -8.188619 -37.000936 8.483904 12.669303 -10.355223 -8.232381 20.799379 13.026539 -0.784761 -4.693033 2.338584 0.548650 -0.167240 0.302290 -0.106410 7.190728 33.793002 14.587404 30.955024 17.662654 2.598489 -12.062902 -2.189010 0.525197 2.770160 -1.184771 -0.101140 0.159500 0.041880 -0.197540 
5.748740 16.267700 -8.081650 170.674546 73.845773 155.776093 -15.374291 13.392877 3.781620 1.302641 -4.479670 -1.757156 -14.898727 15.551506 41.057037 0.905158 9.466454 1.239979 0.182250 0.106130 0.325360 17.953748 -10.339844 3.527027 3.895982 6.086447 -26.960724 0.677211 -6.008529 40.136629 -0.582247 -4.966868 2.362854 0.052290 -0.078100 0.123350 -3.431307 -1.958488 -8.398007 6.767463 -2.719826 24.233512 -0.291781 -1.430545 14.710742 -0.372937 5.303218 -21.490639 7.079185 -5.694528 40.027437 -4.811930 -0.181110 -14.023880 -8.279440 -36.017939 9.110215 9.449402 -10.821546 -6.584928 19.233053 10.016591 -0.973570 -4.603494 2.378663 0.467870 -0.098710 0.226790 -0.098310 7.723987 32.583768 14.317896 33.858245 15.454579 3.137765 -9.939657 -3.283454 0.918143 2.775510 -1.175971 -0.114840 0.161960 0.075770 -0.162260 
